Coordinates
version=1
nRows=18
nColumns=34
inDegrees=no

Units are S.I. units (second, meters, Newtons, ...)
If the header above contains a line with 'inDegrees', this indicates whether rotational values are in degrees (yes) or radians (no).

endheader
time	pelvis_tilt	pelvis_list	pelvis_rotation	pelvis_tx	pelvis_ty	pelvis_tz	hip_flexion_r	hip_adduction_r	hip_rotation_r	knee_angle_r	ankle_angle_r	subtalar_angle_r	mtp_angle_r	hip_flexion_l	hip_adduction_l	hip_rotation_l	knee_angle_l	ankle_angle_l	subtalar_angle_l	mtp_angle_l	lumbar_extension	lumbar_bending	lumbar_rotation	arm_flex_r	arm_add_r	arm_rot_r	elbow_flex_r	pro_sup_r	arm_flex_l	arm_add_l	arm_rot_l	elbow_flex_l	pro_sup_l
0.81	-0.00641729	0.0543754	-0.0791563	0.77827	1.03955	-0.320421	-0.103939	-0.177311	-0.16621	0.756035	-0.218309	-0.112594	-0.0239208	0.286657	-0.0377239	-0.323351	0.26051	0.0252927	0.175843	-0.0287199	-0.293086	-0.334141	0.0410001	0.0468402	-0.140956	0.114754	0.75298	2.07293	-0.0169426	-0.328039	-0.133329	0.659759	2.05815
0.82	-0.00910963	0.0642334	-0.0909238	0.789129	1.04104	-0.31979	-0.0730531	-0.19388	-0.152792	0.802713	-0.252327	-0.1449	-0.0239299	0.273348	-0.0270357	-0.329759	0.252185	0.030443	0.166583	-0.0287482	-0.28563	-0.359261	0.0368706	0.0418992	-0.141192	0.132765	0.755246	2.07285	-0.00743192	-0.3347	-0.134628	0.662332	2.05736
0.83	-0.0113662	0.0731967	-0.102843	0.799778	1.0425	-0.319097	-0.0420933	-0.208699	-0.139465	0.847335	-0.280521	-0.176719	-0.023939	0.259873	-0.0174648	-0.337163	0.243773	0.0356473	0.160096	-0.0287766	-0.278357	-0.38299	0.0330323	0.0372757	-0.141748	0.149451	0.758365	2.07295	0.00228401	-0.341375	-0.136075	0.665299	2.05633
0.84	-0.0131033	0.0811773	-0.114553	0.810217	1.04395	-0.318379	-0.0115759	-0.221564	-0.12669	0.889275	-0.301222	-0.207353	-0.0239481	0.246179	-0.00892636	-0.344981	0.235326	0.0407521	0.155959	-0.0288049	-0.271511	-0.405155	0.0292103	0.0329083	-0.142504	0.16436	0.76227	2.07319	0.012278	-0.348014	-0.137714	0.668626	2.05498
0.85	-0.0142957	0.0880696	-0.125745	0.82046	1.04539	-0.317664	0.0181044	-0.23229	-0.114801	0.928031	-0.313344	-0.236124	-0.0239573	0.2322	-0.00133323	-0.352637	0.226777	0.0456052	0.153647	-0.0288333	-0.265278	-0.425584	0.0251884	0.028727	-0.143366	0.177122	0.766858	2.07352	0.0226093	-0.35455	-0.139562	0.672274	2.05325
0.86	-0.0149632	0.0937766	-0.136189	0.830525	1.04685	-0.316978	0.0466686	-0.240743	-0.104005	0.963213	-0.316572	-0.262416	-0.0239664	0.217862	0.00540091	-0.359632	0.21798	0.050072	0.152605	-0.0288617	-0.259778	-0.444132	0.0208257	0.0246594	-0.144267	0.187476	0.772001	2.07385	0.0333154	-0.360898	-0.141616	0.676213	2.05107
0.87	-0.0151692	0.0982277	-0.145739	0.84043	1.04833	-0.316342	0.0739503	-0.246855	-0.0944065	0.994529	-0.311428	-0.285723	-0.0239756	0.203104	0.0113519	-0.365592	0.20876	0.054052	0.152321	-0.0288901	-0.25506	-0.460697	0.0160583	0.0206396	-0.14518	0.195297	0.777554	2.07413	0.0444099	-0.366972	-0.143857	0.680419	2.04847
0.88	-0.0150155	0.101398	-0.154331	0.850192	1.04983	-0.31577	0.0998777	-0.250633	-0.0860391	1.02177	-0.299178	-0.305699	-0.0239847	0.187904	0.0165794	-0.370297	0.198964	0.0574887	0.152391	-0.0289185	-0.251109	-0.475229	0.0108827	0.0166175	-0.146102	0.200597	0.78337	2.0743	0.0558837	-0.372685	-0.146253	0.684883	2.04552
0.89	-0.0146262	0.103322	-0.161956	0.859825	1.05132	-0.315269	0.124461	-0.252166	-0.0789056	1.0448	-0.281604	-0.322182	-0.0239939	0.172297	0.0211279	-0.373671	0.188498	0.0603699	0.152539	-0.0289469	-0.247862	-0.48773	0.00533337	0.0125671	-0.147058	0.203517	0.789305	2.07432	0.0677085	-0.377971	-0.148756	0.689612	2.04234
0.9	-0.0141311	0.104074	-0.168631	0.86934	1.0528	-0.314844	0.147773	-0.25161	-0.0730059	1.06357	-0.260704	-0.335214	-0.0240031	0.156385	0.0250282	-0.375769	0.177362	0.0627264	0.152633	-0.0289754	-0.245211	-0.498261	-0.000542736	0.00849135	-0.148078	0.204303	0.795225	2.07418	0.0798431	-0.382784	-0.151297	0.69463	2.0391
0.91	-0.0136603	0.10376	-0.174389	0.878744	1.05424	-0.314497	0.16993	-0.249179	-0.0683526	1.07809	-0.238389	-0.345018	-0.0240122	0.140339	0.0282951	-0.376741	0.165659	0.06463	0.152673	-0.0290038	-0.243034	-0.506931	-0.00670239	0.00442102	-0.149195	0.203271	0.801011	2.07387	0.0922406	-0.387116	-0.153781	0.699975	2.03596
0.92	-0.0133349	0.102503	-0.179266	0.888043	1.05562	-0.314224	0.191067	-0.245113	-0.0649712	1.08842	-0.216234	-0.351957	-0.0240214	0.124377	0.0309298	-0.376808	0.153594	0.0661871	0.15276	-0.0290323	-0.24121	-0.513886	-0.0131116	0.000410466	-0.150428	0.200767	0.806554	2.07344	0.104854	-0.39099	-0.156085	0.705694	2.03308
0.93	-0.0132535	0.100444	-0.1833	0.897236	1.05692	-0.31402	0.211307	-0.239674	-0.0628895	1.0947	-0.19533	-0.356468	-0.0240306	0.108728	0.0329307	-0.37622	0.141441	0.0675285	0.153054	-0.0290608	-0.239642	-0.519299	-0.0197419	-0.00347108	-0.15178	0.197134	0.811758	2.07294	0.117642	-0.394461	-0.158053	0.711832	2.03059
0.94	-0.0134766	0.0977339	-0.186542	0.906327	1.05812	-0.313879	0.230747	-0.233131	-0.0621217	1.0971	-0.176259	-0.359	-0.0240398	0.0935893	0.0343102	-0.375238	0.129504	0.0687949	0.153735	-0.0290893	-0.238268	-0.523368	-0.026561	-0.00714988	-0.153235	0.192678	0.816539	2.07245	0.130564	-0.397604	-0.15951	0.718428	2.02859
0.95	-0.0140145	0.0945312	-0.18906	0.915316	1.05921	-0.313792	0.249436	-0.225757	-0.0626547	1.0958	-0.15915	-0.359953	-0.024049	0.0790965	0.0351084	-0.374103	0.118076	0.0701235	0.154969	-0.0291178	-0.237068	-0.526307	-0.0335234	-0.0105576	-0.154759	0.187656	0.820822	2.07208	0.143585	-0.400507	-0.160269	0.725506	2.02714
0.96	-0.0148254	0.0909991	-0.19094	0.924208	1.06019	-0.313748	0.267372	-0.217821	-0.0644389	1.09102	-0.143818	-0.359648	-0.0240582	0.0653037	0.0353966	-0.373036	0.107403	0.0716404	0.156889	-0.0291463	-0.236056	-0.528339	-0.0405643	-0.0136391	-0.15631	0.182275	0.824549	2.07192	0.15667	-0.403259	-0.16015	0.733071	2.02624
0.97	-0.0158254	0.0872922	-0.192288	0.93301	1.06104	-0.313735	0.284512	-0.209568	-0.0673884	1.08296	-0.129915	-0.358322	-0.0240674	0.0521924	0.0352679	-0.372234	0.097669	0.0734595	0.159597	-0.0291749	-0.235268	-0.52968	-0.0475994	-0.0163565	-0.157839	0.176694	0.827671	2.07203	0.169781	-0.405937	-0.158993	0.741111	2.02585
0.98	-0.0169108	0.0835458	-0.193214	0.94173	1.06177	-0.313744	0.300793	-0.201205	-0.0713869	1.07184	-0.117063	-0.356138	-0.0240766	0.0396948	0.0348225	-0.371867	0.0889986	0.0756816	0.163162	-0.0292034	-0.234747	-0.530521	-0.0545327	-0.0186897	-0.159298	0.171046	0.830159	2.07236	0.182874	-0.408606	-0.156675	0.749598	2.02587
